# xmcd CD database file
#
# Track frame offsets:
#	150
#	33556
#	58999
#	82626
#	104488
#	134467
#	156426
#	181204
#	207730
#	229343
#	254595
#	272797
#
# Disc length: 3970 seconds
#
# Revision: 0
# Processed by: cddbd v1.5.1PL2 Copyright (c) Steve Scherf et al.
# Submitted via: CDex 1.51
#
DISCID=b50f800c
DTITLE=Till Brönner - Oceana
DYEAR=2006
DGENRE=Jazz
TTITLE0=Bumpin
TTITLE1=Love Theme From Chinatown
TTITLE2=In My Secret Life
TTITLE3=The Peacocks
TTITLE4=I'm So Lonesome I Could Cry
TTITLE5=Subrosa
TTITLE6=Pra Dizer Adeus
TTITLE7=It Ever Entered My Mind
TTITLE8=River Man
TTITLE9=Danny Boy
TTITLE10=A Distant Episode
TTITLE11=Tarde
EXTD=YEAR: 2006
EXTT0=
EXTT1=
EXTT2=
EXTT3=
EXTT4=
EXTT5=
EXTT6=
EXTT7=
EXTT8=
EXTT9=
EXTT10=
EXTT11=
PLAYORDER=
